<?xml version="1.0" encoding="UTF-8"?>
<svg id="Capa_3" data-name="Capa 3" xmlns="http://www.w3.org/2000/svg" viewBox="0 0 1165.69 1165.69">
  <defs>
    <style>
      .cls-1 {
        fill: #1d1d1b;
        stroke: #1d1d1b;
      }

      .cls-1, .cls-2 {
        stroke-miterlimit: 10;
        stroke-width: 2px;
      }

      .cls-2 {
        fill: #fff;
        stroke: #fff;
      }
    </style>
  </defs>
  <rect class="cls-1" x="38.68" y="17.93" width="1080" height="1080"/>
  <g id="Capa_1" data-name="Capa 1">
    <g>
      <g>
        <polygon class="cls-2" points="636.73 594.04 800.59 494.52 800.59 756.64 752.09 790.76 636.73 680.58 636.73 594.04"/>
        <polygon class="cls-2" points="539.81 594.04 372.62 494.52 372.62 756.64 423.1 790.76 539.81 680.58 539.81 594.04"/>
      </g>
      <g>
        <polygon class="cls-2" points="585.81 977.83 317.6 809.81 317.6 554.46 85.04 218.08 112.97 218.08 312.11 320.79 153.04 131.08 196.75 131.08 456.61 324.42 456.61 364.7 261.51 218.08 456.61 433.77 181.54 294.42 355.98 547.58 353.61 794.91 586.61 936.64 823.27 796 823.27 548.22 991.68 294.42 716.61 433.77 911.7 218.08 716.61 364.7 716.61 324.42 976.47 131.08 1020.18 131.08 861.11 320.79 1060.25 218.08 1088.18 218.08 859.35 557.93 859.35 809.81 585.81 977.83"/>
        <polygon class="cls-2" points="586.61 813.34 557.67 791.05 544.54 791.05 544.54 802.89 578.68 827.5 544.54 852.58 544.54 867.82 558.07 867.49 586.61 842.12 615.1 867.72 628.68 867.82 628.68 854.4 598.12 826.8 628.68 803.3 628.68 791.05 615.31 790.73 586.61 813.34"/>
        <polygon class="cls-2" points="587.12 539.08 843.79 388.14 874.53 393.26 873.72 425.35 615.64 581.03 615.64 685.48 720.82 792.72 724.87 825.08 692.59 825.08 586.61 720.23 480.63 825.08 448.35 825.08 452.4 792.72 561.61 684.32 561.61 579.87 299.5 425.35 298.69 393.26 329.43 388.14 587.12 539.08"/>
      </g>
    </g>
  </g>
</svg>