<?xml version="1.0" encoding="UTF-8"?>
<svg id="Capa_5" data-name="Capa 5" xmlns="http://www.w3.org/2000/svg" viewBox="0 0 1165.69 1165.69">
  <defs>
    <style>
      .cls-1 {
        fill: #1d1d1b;
        stroke: #1d1d1b;
        stroke-miterlimit: 10;
        stroke-width: 2px;
      }
    </style>
  </defs>
  <g id="Capa_4" data-name="Capa 4">
    <g>
      <g>
        <polygon class="cls-1" points="628.8 597.5 792.67 497.99 792.67 760.1 744.17 794.22 628.8 684.04 628.8 597.5"/>
        <polygon class="cls-1" points="531.88 597.5 364.7 497.99 364.7 760.1 415.18 794.22 531.88 684.04 531.88 597.5"/>
      </g>
      <g>
        <polygon class="cls-1" points="577.88 981.3 309.67 813.28 309.67 557.93 77.11 221.55 105.04 221.55 304.18 324.26 145.11 134.55 188.82 134.55 448.68 327.88 448.68 368.17 253.59 221.55 448.68 437.24 173.61 297.89 348.06 551.04 345.68 798.37 578.68 940.11 815.34 799.47 815.34 551.69 983.75 297.89 708.68 437.24 903.78 221.55 708.68 368.17 708.68 327.88 968.54 134.55 1012.25 134.55 853.18 324.26 1052.32 221.55 1080.25 221.55 851.42 561.39 851.42 813.28 577.88 981.3"/>
        <polygon class="cls-1" points="578.68 816.81 549.74 794.52 536.61 794.52 536.61 806.36 570.76 830.97 536.61 856.04 536.61 871.29 550.15 870.96 578.68 845.58 607.18 871.19 620.75 871.29 620.75 857.86 590.19 830.26 620.75 806.76 620.75 794.52 607.38 794.19 578.68 816.81"/>
        <polygon class="cls-1" points="579.19 542.55 835.86 391.61 866.6 396.73 865.79 428.82 607.72 584.5 607.72 688.95 712.9 796.19 716.94 828.55 684.66 828.55 578.68 723.7 472.7 828.55 440.42 828.55 444.47 796.19 553.68 687.79 553.68 583.34 291.57 428.82 290.76 396.73 321.5 391.61 579.19 542.55"/>
      </g>
    </g>
  </g>
</svg>